<svg xmlns="http://www.w3.org/2000/svg" version="1.1" xmlns:xlink="http://www.w3.org/1999/xlink" xmlns:svgjs="http://svgjs.dev/svgjs" viewBox="0 0 2400 800"><defs><linearGradient x1="50%" y1="0%" x2="50%" y2="100%" id="sssurf-grad"><stop stop-color="hsla(265, 0%, 0%, 1)" stop-opacity="1" offset="0%"></stop><stop stop-color="hsla(265, 27%, 32%, 1)" stop-opacity="1" offset="100%"></stop></linearGradient></defs><g fill="url(#sssurf-grad)" transform="matrix(1,0,0,1,5.82373046875,257.9757995605469)"><path d="M-10,10C75.41666666666666,20.625,231.25,72.25,400,61C568.75,49.75,633.3333333333333,-41.5,800,-44C966.6666666666667,-46.5,1033.3333333333333,41.708333333333336,1200,49C1366.6666666666667,56.291666666666664,1433.3333333333333,-4.625,1600,-9C1766.6666666666667,-13.375,1833.3333333333333,35.5,2000,28C2166.6666666666665,20.5,2264.5833333333335,-122.5,2400,-45C2535.4166666666665,32.5,3254.1666666666665,203.125,2650,400C2045.8333333333335,596.875,156.25,795.8333333333334,-500,900" transform="matrix(1,0,0,1,0,42)" opacity="0.05"></path><path d="M-10,10C75.41666666666666,20.625,231.25,72.25,400,61C568.75,49.75,633.3333333333333,-41.5,800,-44C966.6666666666667,-46.5,1033.3333333333333,41.708333333333336,1200,49C1366.6666666666667,56.291666666666664,1433.3333333333333,-4.625,1600,-9C1766.6666666666667,-13.375,1833.3333333333333,35.5,2000,28C2166.6666666666665,20.5,2264.5833333333335,-122.5,2400,-45C2535.4166666666665,32.5,3254.1666666666665,203.125,2650,400C2045.8333333333335,596.875,156.25,795.8333333333334,-500,900" transform="matrix(1,0,0,1,0,84)" opacity="0.29"></path><path d="M-10,10C75.41666666666666,20.625,231.25,72.25,400,61C568.75,49.75,633.3333333333333,-41.5,800,-44C966.6666666666667,-46.5,1033.3333333333333,41.708333333333336,1200,49C1366.6666666666667,56.291666666666664,1433.3333333333333,-4.625,1600,-9C1766.6666666666667,-13.375,1833.3333333333333,35.5,2000,28C2166.6666666666665,20.5,2264.5833333333335,-122.5,2400,-45C2535.4166666666665,32.5,3254.1666666666665,203.125,2650,400C2045.8333333333335,596.875,156.25,795.8333333333334,-500,900" transform="matrix(1,0,0,1,0,126)" opacity="0.53"></path><path d="M-10,10C75.41666666666666,20.625,231.25,72.25,400,61C568.75,49.75,633.3333333333333,-41.5,800,-44C966.6666666666667,-46.5,1033.3333333333333,41.708333333333336,1200,49C1366.6666666666667,56.291666666666664,1433.3333333333333,-4.625,1600,-9C1766.6666666666667,-13.375,1833.3333333333333,35.5,2000,28C2166.6666666666665,20.5,2264.5833333333335,-122.5,2400,-45C2535.4166666666665,32.5,3254.1666666666665,203.125,2650,400C2045.8333333333335,596.875,156.25,795.8333333333334,-500,900" transform="matrix(1,0,0,1,0,168)" opacity="0.76"></path><path d="M-10,10C75.41666666666666,20.625,231.25,72.25,400,61C568.75,49.75,633.3333333333333,-41.5,800,-44C966.6666666666667,-46.5,1033.3333333333333,41.708333333333336,1200,49C1366.6666666666667,56.291666666666664,1433.3333333333333,-4.625,1600,-9C1766.6666666666667,-13.375,1833.3333333333333,35.5,2000,28C2166.6666666666665,20.5,2264.5833333333335,-122.5,2400,-45C2535.4166666666665,32.5,3254.1666666666665,203.125,2650,400C2045.8333333333335,596.875,156.25,795.8333333333334,-500,900" transform="matrix(1,0,0,1,0,210)" opacity="1.00"></path></g></svg>